<?xml version="1.0" encoding="UTF-8"?>
<svg id="Layer_2" data-name="Layer 2" xmlns="http://www.w3.org/2000/svg" xmlns:xlink="http://www.w3.org/1999/xlink" viewBox="0 0 1015.85 673.31">
  <defs>
    <style>
      .cls-1 {
        letter-spacing: .01em;
      }

      .cls-2 {
        fill: #fff;
      }

      .cls-3 {
        font-family: VastagoGrotesk-SemiBold, 'Vastago Grotesk';
        font-size: 34.37px;
        font-weight: 600;
      }

      .cls-3, .cls-4 {
        fill: #540e38;
      }

      .cls-5 {
        stroke-dasharray: 0 0 10.26 10.26;
        stroke-width: 2.93px;
      }

      .cls-5, .cls-6, .cls-7, .cls-8, .cls-9 {
        fill: none;
      }

      .cls-5, .cls-6, .cls-7, .cls-9, .cls-10 {
        stroke-miterlimit: 10;
      }

      .cls-5, .cls-9 {
        stroke: #d880ba;
        stroke-linecap: round;
      }

      .cls-11 {
        fill: #561842;
      }

      .cls-12 {
        fill: #ff996f;
      }

      .cls-13 {
        fill: #534772;
      }

      .cls-14 {
        fill: #5b9bef;
      }

      .cls-15 {
        fill: #e9abd3;
      }

      .cls-16 {
        fill: #ffcc6b;
      }

      .cls-17 {
        clip-path: url(#clippath-2);
      }

      .cls-18 {
        fill: #fafffd;
      }

      .cls-19 {
        fill: #180617;
      }

      .cls-20 {
        fill: #8f4325;
      }

      .cls-21 {
        fill: #f58f29;
      }

      .cls-22 {
        clip-path: url(#clippath-1);
      }

      .cls-23 {
        clip-path: url(#clippath-4);
      }

      .cls-24 {
        fill: #e9874f;
      }

      .cls-6 {
        stroke: #fff;
      }

      .cls-6, .cls-9 {
        stroke-width: 2.2px;
      }

      .cls-25 {
        fill: #ab5e3d;
      }

      .cls-26 {
        fill: #ffe1f4;
      }

      .cls-7, .cls-10 {
        stroke: #000;
        stroke-width: 1.47px;
      }

      .cls-27 {
        fill: #49d7ef;
      }

      .cls-28 {
        clip-path: url(#clippath);
      }

      .cls-29 {
        fill: #ff4084;
      }

      .cls-30 {
        clip-path: url(#clippath-3);
      }

      .cls-10 {
        fill: #ff684f;
      }

      .cls-31 {
        fill: #ffb093;
      }

      .cls-32 {
        fill: #ffe19c;
      }

      .cls-33 {
        fill: #c24d30;
      }

      .cls-34 {
        fill: #b2544b;
      }

      .cls-35 {
        fill: #526cc4;
      }

      .cls-36 {
        fill: #ff8f5d;
      }

      .cls-37 {
        fill: #ffc746;
      }

      .cls-38 {
        fill: #1b1f27;
      }

      .cls-39 {
        fill: #3c91e6;
      }

      .cls-40 {
        fill: #8839d2;
      }
    </style>
    <clipPath id="clippath">
      <path class="cls-8" d="m418.43,517.57c0,73.99-59.98,133.97-133.97,133.97s-133.97-59.98-133.97-133.97c0-45.26-12.12-112.77,22.24-137.03,21.82-15.4,79.67-22.13,111.73,3.06,73.99,0,133.97,59.98,133.97,133.97Z"/>
    </clipPath>
    <clipPath id="clippath-1">
      <path class="cls-8" d="m824.69,539.88c0,61.67-49.99,111.66-111.66,111.66s-111.66-49.99-111.66-111.66,37.68-152.67,99.35-152.67,123.97,91,123.97,152.67Z"/>
    </clipPath>
    <clipPath id="clippath-2">
      <path class="cls-8" d="m957.26,280.42c0,65.86-53.39,119.25-119.25,119.25s-119.25-53.39-119.25-119.25,53.39-119.25,119.25-119.25c0-53.23,73.49-35.71,95.34-11.11,18.69,21.05,23.92,99.99,23.92,130.36Z"/>
    </clipPath>
    <clipPath id="clippath-3">
      <circle class="cls-8" cx="656.28" cy="137.34" r="87.64" transform="translate(95.11 504.29) rotate(-45)"/>
    </clipPath>
    <clipPath id="clippath-4">
      <circle class="cls-8" cx="316.47" cy="152.25" r="94.04" transform="translate(-14.96 268.37) rotate(-45)"/>
    </clipPath>
  </defs>
  <g id="Layer_1-2" data-name="Layer 1">
    <g>
      <path class="cls-26" d="m782.9,562.69c1.42-3.95,2.49-8.02,3.17-12.19,4.23-25.89-8.02-59.1,12.21-80.52,14.38-15.22,38.02-16.02,56.88-25.12,31.4-15.15,46.62-57.03,32.28-88.81-11.62-25.75-38.25-42.24-50.23-67.83-14.49-30.93-4.53-67.17-5.97-101.29-1.25-29.83-12.02-59.65-32.33-81.54-44.24-47.67-98.25-36.97-138.21,7.31-11.69,12.96-21.86,26.26-29.54,35.2-40.69,47.4-102.26,38.66-146.56,1.59-46.64-39.03-106.28-123.1-165.61-52.46-23.44,27.91-28.35,73.37-22.75,108.27,3.37,20.99,7.39,46.81-9.51,59.71-12.2,9.3-29.37,6.58-44.39,9.71-24.81,5.18-43.77,27.79-48.96,52.62-8.23,39.32,5.21,82.83,34.1,111.8,29.89,29.97,70.39,34.98,110.74,31.14,19.13-1.82,31.01-4.44,48.26,4.44,41.24,21.23,75.73,92.68,107.96,123.48,40.96,39.14,100.49,47.78,154.77,41.11,37.53-4.61,78.49-14.84,107.81-40.11,11.42-9.84,20.83-22.41,25.88-36.51Z"/>
      <g>
        <path class="cls-5" d="m382.3,142.6c14.13-47.73,37.76-98.21,87.36-109.9,56.08-13.21,112.65,33.6,136.9,84.96"/>
        <path class="cls-5" d="m704.41,132.11c12.08-28.93,38.79-50.32,68.2-54.63,61.6-9.01,101.05,54.44,95.16,122.49"/>
        <path class="cls-5" d="m257.71,458c-21.17-10.67-41.68-24.08-58.05-43.04-16.38-18.96-28.4-43.98-30.11-70.85-2.17-34.01,12.43-67.27,33.22-91.2s47.28-39.82,73.91-53.75"/>
        <path class="cls-5" d="m355.85,493.09c10.01,29.3,21.32,58.48,38.44,84.62,17.12,26.14,40.51,49.28,69.81,62.3,54.17,24.08,131.66,15.33,166.84-38.48"/>
        <path class="cls-5" d="m713.03,597.53c47.3,1.96,104.84,2.07,143.46-34.53,45.95-43.55,40.98-134.78,4.15-168.87"/>
        <path class="cls-5" d="m346.93,469.95c-2.25-23.16-1.01-48.18,4.13-68.97s14.31-36.93,24.82-41.8c5.34-2.48,10.89-2.1,16.3-.44,9.17,2.81,18.11,9.31,26.25,19.07"/>
        <path class="cls-5" d="m382.14,213.54c11.79-15.4,25.35-21.79,38.3-15.78,12.95,6.01,23.35,23.97,29.5,44.91,6.15,20.94,8.5,44.68,9.61,68.17"/>
        <path class="cls-5" d="m594.9,191.93c-5.93-17.08-20.46-36.98-35.89-31.17-27.99,10.55-41.22,81.01-43.96,125.07"/>
        <path class="cls-5" d="m760.66,348c-8.8-15.02-18.92-29.57-32.29-40.73-13.37-11.16-30.35-18.74-47.76-18.12-17.65.63-34.01,9.46-48.08,20.13-10.93,8.29-20.93,17.82-29.74,28.34"/>
        <path class="cls-5" d="m625.03,486.54c1.34-17.92,1.18-44.44-6.15-60.77-9.33-20.76-32.07-26.09-59.32-10.79"/>
      </g>
      <g>
        <path class="cls-18" d="m507.82,443.37c-55.64,0-102.04-43.54-105.64-99.12-3.78-58.31,40.58-108.82,98.89-112.59,2.31-.15,4.65-.23,6.96-.23,55.64,0,102.04,43.54,105.64,99.12,1.83,28.25-7.45,55.51-26.13,76.78-18.68,21.27-44.52,33.99-72.76,35.82-2.31.15-4.65.23-6.96.23Z"/>
        <path class="cls-15" d="m508.03,232.9c54.63,0,100.59,42.45,104.18,97.75,3.73,57.59-39.93,107.31-97.52,111.04-2.3.15-4.59.22-6.86.22-54.63,0-100.59-42.45-104.18-97.75-3.73-57.59,39.93-107.31,97.52-111.04,2.3-.15,4.59-.22,6.86-.22m2.93-2.93h-2.93c-2.34,0-4.71.08-7.05.23-28.64,1.86-54.83,14.75-73.77,36.31s-28.34,49.2-26.49,77.84c1.78,27.41,13.81,52.82,33.87,71.56,19.98,18.65,45.98,28.93,73.23,28.93,2.34,0,4.71-.08,7.05-.23,28.64-1.86,54.83-14.75,73.77-36.31s28.34-49.2,26.49-77.84c-1.78-27.41-13.8-52.82-33.87-71.56-19.26-17.98-44.13-28.18-70.3-28.89v-.04h0Z"/>
      </g>
      <g>
        <g>
          <circle class="cls-2" cx="284.46" cy="517.57" r="133.97" transform="translate(-282.66 352.74) rotate(-45)"/>
          <g class="cls-28">
            <g>
              <path class="cls-34" d="m325.53,497.6c1.52,6.08,2.85,12.3,2.62,18.56-.23,6.27-2.17,12.67-6.45,17.24-5.68,6.07-14.54,8.06-22.86,8.14-17.94.17-35.82-7.4-48.17-20.42-12.35-13.01-18.99-31.26-17.88-49.17.66-10.64,4.01-21.19,10.18-29.88,6.17-8.69,15.23-15.43,25.52-18.19,14.87-3.99,29.28,2.44,35.91,15.82,9.12,18.42,16.15,37.95,21.13,57.89Z"/>
              <path class="cls-7" d="m307.22,498.22c.02,2.86,2.24,5.55,5.05,6.1s5.88-1.1,6.98-3.74"/>
              <polyline class="cls-34" points="301.86 534.69 301.86 573.42 223.05 562.61 232.67 516.06"/>
              <path class="cls-19" d="m321.39,425.42c-2.36-5.57-7.09-7.51-11.09-11.02-3.46-3.04-5.33-7.27-6.57-11.61-1.11-3.89-1.31-8.51-4.97-11.04-6.17-4.26-14.09.61-20.64-1.57-5.86-1.95-7.11-8.81-12.83-11.2-7.52-3.15-15.71,3.56-23.84,3.01-4.3-.29-8.28-2.63-12.59-2.81-9.69-.42-16.13,8.77-24.29,12.41-4.37,1.95-8.92,1-13.3,2.55-5.05,1.78-8.78,6.41-11.41,10.88-3.38,5.75-5.91,12.23-10.89,16.65-3.01,2.67-6.81,4.48-9.26,7.67-3.36,4.37-3.48,10.39-2.84,15.87.64,5.48,1.9,11.04.77,16.44-1.23,5.87-5.24,11.24-4.74,17.22.68,8.13,9.38,13.74,10.47,21.83.52,3.83-.75,7.84.39,11.52,3.01,9.74,14.45,6.76,20.84,11.41,5.79,4.21,7.19,13.42,14.72,15.51,4.65,1.29,9.46-1.29,14.29-1.4,4.56-.1,8.84,2,13.2,3.35,4.36,1.35,9.56,1.8,13.08-1.12,3.09-2.57,3.99-7.04,6.9-9.8,2.43-2.3,5.88-3.08,9.13-3.87,15.63-3.78,7.77-19.43,1.02-28.09-5.16-6.63,2.84-12.9,2.85-20.36.02-7.48-6.75-11.14-5.33-18.85.51-2.8,1.86-5.5,4.03-7.34,1.84-1.56,4.2-2.47,5.75-4.37,1.09-1.34,1.29-3.27,2.35-4.56,3.05-3.71,7.94-1.98,11.56.05,7.11,4,10.8,1.92,16.14-3.42,1.48-1.48,2.98-2.92,4.66-2.4,1.5.46,3.23,3.01,4.19,4.18,3.62,4.39,6.52,9.64,8.69,14.89,0,0,4.71-3.03,8.54-11.48,1.83-4.03,3.39-13.56,1.04-19.13Z"/>
              <path d="m307.02,474.72c.85,2.45.04,4.97-1.82,5.61-1.86.65-4.06-.82-4.91-3.27-.85-2.45-.04-4.97,1.82-5.61,1.86-.65,4.06.82,4.91,3.27Z"/>
              <path class="cls-34" d="m317.13,471.44c4.03,4.91,8.05,9.82,12.08,14.73.44.54.88,1.08,1.14,1.73.83,2.13-.75,4.49-2.67,5.72-1.92,1.23-4.21,1.81-6.08,3.13"/>
              <g>
                <path class="cls-36" d="m175.87,614.89s6.72-38.06,16.12-47.47c9.4-9.4,14.99-13.62,34.69-12.12,19.7,1.51,71.95,7.26,87.83,11.98,20.67,6.14,40.84,9.82,50.18,38.68,10.69,33.05,16.41,60.4,16.41,60.4,0,0-147.91,31.36-205.23-51.48Z"/>
                <line class="cls-7" x1="295.66" y1="630.48" x2="299.96" y2="671.7"/>
              </g>
              <g>
                <path class="cls-34" d="m276.07,491.01c-4.55-6.55-16.09-11.49-24.54-3.75-2.82,2.58-3.96,5.98-3.96,9.2,0,7.25,3.89,14.63,10.58,19.38,3.6,2.56,8.82,4.41,13.73,2.98,4.69-1.37,7.62-4.85,8.31-8.76"/>
                <path class="cls-7" d="m280.19,510.06c-.69,3.92-3.62,7.4-8.31,8.76-2.61.76-4.98.6-7.43-.26"/>
                <path class="cls-7" d="m276.07,491.01c-4.55-6.55-16.09-11.49-24.54-3.75"/>
                <line class="cls-10" x1="256.07" y1="496.74" x2="276.46" y2="504.23"/>
              </g>
              <path class="cls-7" d="m269.34,526.1c10.13,10.57,21.31,14.23,32.55,15.41"/>
              <path class="cls-7" d="m288.75,471.04c1.34-2.82,2.82-5.66,5.08-7.82,2.26-2.16,5.46-3.56,8.52-2.95,2.71.55,4.88,2.53,6.89,4.43"/>
            </g>
          </g>
        </g>
        <g>
          <circle class="cls-2" cx="713.03" cy="539.88" r="111.66" transform="translate(-172.91 662.32) rotate(-45)"/>
          <g class="cls-22">
            <g>
              <path class="cls-16" d="m839.67,655.34s-5.26-74.32-20.09-90.38c-14.83-16.06-38.55-23.65-82.75-10.59-13.38,2.73-27.55,6.37-51.3.87-23.75-5.5-58.92-3.72-69.43,20.88-20.11,47.06-29.72,79.22-29.72,79.22h253.28Z"/>
              <path class="cls-24" d="m672.68,531.13l5.82,33.81s1.71,13.06,25.06,13.06c33.98,0,48.4-26.76,48.4-26.76l-19.47-55.98-59.81,35.87Z"/>
              <path class="cls-24" d="m749.74,458.47c-3.68-8.36-10.38-15.41-20.37-19.35-18.49-7.28-45.55-3.91-56.76,12.69-5.78,8.56-9.95,18.86-14,28.3-2.8,6.52-5.42,14.29-6.86,21.39-2.19,10.79.09,20.69,6.42,28.74,7.05,8.95,19.88,12.04,31.25,10.8,16.73-1.82,33.31-13.15,44.66-24.43,7.31-7.26,13.09-16.15,16.45-25.81,3.69-10.61,3.58-22.4-.79-32.34Z"/>
              <path class="cls-7" d="m676.81,476.59c-2.81,5.73-6.79,10.89-11.52,15.17-.83.76-1.71,1.5-2.29,2.46-2.69,4.39,3.52,6.62,6.53,7.87"/>
              <path class="cls-7" d="m685.55,479.1c8.41-4.95,16.91,2.02,20.51,9.46"/>
              <path class="cls-7" d="m664.21,468.03c4.11-3.08,9.04.34,10.5,5.58"/>
              <path d="m690.33,492.6c-.99,2.19-3.02,3.4-4.53,2.72-1.51-.68-1.92-3.01-.93-5.2.99-2.19,3.02-3.4,4.53-2.72,1.51.68,1.92,3.01.93,5.2Z"/>
              <path d="m666.97,480.72c-.99,2.19-3.02,3.4-4.53,2.72-1.51-.68-1.92-3.01-.93-5.2.99-2.19,3.02-3.4,4.53-2.72,1.51.68,1.92,3.01.93,5.2Z"/>
              <path class="cls-7" d="m674.7,540.15c14.73.89,24.92-3.52,33.46-9.37"/>
              <path class="cls-20" d="m708.81,458.25c-3.06,3.52-8.29,4.98-12.73,3.54s-7.82-5.69-8.23-10.33c-7.34,3.83-16.05,4.98-24.13,3.18-3.25-.72-6.48-1.96-8.94-4.2-2.46-2.24-4.05-5.63-3.5-8.92.55-3.32,3.16-6.01,6.17-7.54,3.01-1.52,6.4-2.07,9.73-2.59-3.48-2.65-4.16-8.01-2.09-11.87,2.06-3.85,6.33-6.19,10.67-6.73,5.5-.68,11.92,3.22,17.06.98,2.46-1.08,4.59-2.9,7.17-3.67,8.89-2.67,20.39,7.12,28.14,10.52,9.19,4.03,20.82,5.9,26.79,14.84,2.48,3.71,3.53,8.15,5.12,12.31,2.63,6.9,6.78,13.14,9.23,20.1,4.61,13.08-1.59,29-9.45,39.74-7.15,9.77-6.06,15.52-14.54,24.36-7.24-6.89-18.28-17.7-18.48-27.02-.05-2.16-.22-4.25-.06-6.36.17-2.22.96-5.86-1.27-7.39-2.22-1.53-5.01.67-7.35.03-.78-.21-1.43-.74-2.02-1.29-9.6-8.83-7.68-19.9-7.27-31.69Z"/>
              <g>
                <path class="cls-24" d="m717.06,494.49c4.58-5.25,13.88-8.19,18.41-.28,1.51,2.64,1.66,5.79,1.01,8.65-1.45,6.42-5.72,12.49-11.49,15.87-3.1,1.82-7.23,2.82-10.48.94-3.1-1.8-4.51-5.24-4.23-8.8"/>
                <path class="cls-7" d="m710.28,510.87c-.29,3.56,1.13,7.01,4.23,8.8,5.04,2.92,11.97-.35,14.99-4.74"/>
                <path class="cls-7" d="m717.06,494.49c4.58-5.25,13.88-8.19,18.41-.28"/>
                <line class="cls-7" x1="730.31" y1="502.05" x2="714.13" y2="506.16"/>
              </g>
              <path class="cls-7" d="m678.35,509.45c-1.14,1.52-2.46,2.96-4.11,3.89-1.66.93-3.7,1.3-5.49.65-1.79-.65-3.19-2.46-3.03-4.36"/>
              <line class="cls-7" x1="763.58" y1="655.34" x2="766.09" y2="608.76"/>
              <path class="cls-7" d="m642.3,655.34c5.1-23.13,6.91-40.43,3.46-53.81"/>
              <path class="cls-7" d="m762.23,556.74c-11.13,23.5-41.26,37.1-66.43,32.47"/>
              <path class="cls-7" d="m689.95,588.16c-10.68-1.83-15.48-12.16-16.14-20.12"/>
            </g>
          </g>
        </g>
        <g>
          <circle class="cls-2" cx="838.01" cy="280.42" r="119.25"/>
          <g class="cls-17">
            <g>
              <g>
                <path class="cls-40" d="m812.25,278.78s-4.85,16.55-10.39,26.27c-5.54,9.72-24.67,34.68-21.76,48.29,2.92,13.61,17.59,31.96,17.59,31.96l-4.3,37.41h83.56s19.13-78.58,10.43-114c-8.2-33.43-27.11-43.16-27.11-43.16"/>
                <path class="cls-31" d="m823.37,341.14c-.99,26.88-15.46,81.56-15.46,81.56h55.75s15.59-58.6,14.37-88.55"/>
                <path class="cls-40" d="m823.98,312.26l-1.69,41.18,54.29,4.97s5.9-30.7,4.72-46.15c-1.19-15.44-5.88-27.05-5.88-27.05"/>
                <path class="cls-7" d="m876.58,358.41s5.9-30.7,4.72-46.15c-1.19-15.44-5.88-27.05-5.88-27.05"/>
                <line class="cls-7" x1="823.98" y1="312.26" x2="822.28" y2="353.43"/>
                <line class="cls-7" x1="878.88" y1="344.59" x2="822.84" y2="340.02"/>
                <path class="cls-7" d="m812,289.56c1.62,2.33,4.44,3.62,7.26,3.93,2.82.31,5.67-.25,8.41-.97,14.38-3.79,27.48-12.29,36.79-23.89"/>
              </g>
              <g>
                <path class="cls-31" d="m851.64,239.55l8.63,26s-14.16,13.65-34.42,17.47c-11.87,2.23-13.6-4.24-13.6-4.24v-55.13l45.74,2.29-6.35,13.61Z"/>
                <path class="cls-31" d="m841.48,204.15c-.17-.52-.36-1.04-.55-1.56-2-5.4-4.72-10.59-9.12-14.41-5.17-4.48-9.85-4.64-16.26-4.78-9.81-.21-19.5,5.77-23.69,14.65-3.47,7.34-3.25,15.83-2.62,23.93.49,6.27,1.18,12.53,2.08,18.76.91,6.33,2.3,13.12,7.02,17.44,5.25,4.8,13.37,5.16,20.13,2.95,22.91-7.48,30-36.08,23.01-56.97Z"/>
                <path d="m801.85,224.47c-.09,1.67-1.09,2.97-2.24,2.91-1.15-.06-2.01-1.46-1.92-3.13.09-1.67,1.09-2.97,2.24-2.91,1.15.06,2.01,1.46,1.92,3.13Z"/>
                <path class="cls-31" d="m790.91,223.37c.02,2.85-.49,5.72-1.53,8.37-.95,2.44-2.78,4.52-3.4,7.1-.18.77.21,1.51.81,2,1.1.91,4.96,1.47,6.59,1.23"/>
                <path class="cls-7" d="m794.53,244.85c.53,1.19,2.39,1.62,4.04,1.13,1.65-.48,3.02-1.72,3.73-3.04.71-1.33.84-2.73.72-4.05"/>
                <path class="cls-7" d="m794.86,217.63c2.37-2.4,5.43-2.62,7.79-1.56,2.36,1.05,4.3,2.83,6.2,4.58"/>
                <path class="cls-33" d="m850.23,175.48c-2.88-2.39-6.2-4.26-9.95-5.41-7.89-2.41-16.92-.6-23.33,4.56-7.18-2.32-19.19,1.04-24.42,4.84-8.24,5.98-11.34,15.07-11.95,19.02-2.9,18.83,8.36,18.68,8.36,18.68-.07-6.13-.07-10.14,1.31-14.78,1.07,1.48,3.53,2.96,6.13,3.55,1.67.37,3.41.26,5.11.03,8.14-1.08,15.92-4.67,22.02-10.16-.58,3.96-.85,7.99-.39,11.96.46,3.97,1.68,7.91,3.9,11.24,2.78,4.18,10.4,16.18,25.53,23.52,10.41-7.34,13.6-19.22,14.93-29.67,1.85-14.57-8.63-30.25-17.24-37.38Z"/>
                <circle class="cls-33" cx="863.96" cy="163.28" r="23.57" transform="translate(650.09 1016.13) rotate(-86.62)"/>
                <path class="cls-33" d="m917.26,154.38c3.57,8.91-.77,19.03-9.68,22.59-8.91,3.57-19.03-.77-22.59-9.68-3.57-8.91.77-19.03,9.68-22.59,8.91-3.57,19.03.77,22.59,9.68Z"/>
                <path class="cls-33" d="m930.02,174.41c2.29,5.73-.49,12.24-6.23,14.54-5.73,2.29-12.24-.49-14.54-6.23-2.29-5.73.49-12.24,6.23-14.54,5.73-2.29,12.24.49,14.54,6.23Z"/>
                <g>
                  <path class="cls-31" d="m828.49,225.47c1.89-3.78,7.14-6.94,11.43-3.02,1.43,1.31,2.1,3.13,2.23,4.9.28,3.98-1.26,8.19-4.24,11.07-1.6,1.54-3.99,2.77-6.36,2.17-2.27-.57-3.78-2.37-4.26-4.49"/>
                  <path class="cls-7" d="m827.29,236.1c.48,2.13,1.99,3.92,4.26,4.49,4.18,1.05,7.2-2.37,8.84-5.41"/>
                  <path class="cls-7" d="m839.91,222.45c-4.29-3.92-9.54-.76-11.43,3.02"/>
                  <line class="cls-7" x1="838.15" y1="227.84" x2="828.82" y2="232.75"/>
                </g>
                <path class="cls-7" d="m812.25,262.43c10.41-2.99,17.24-9.88,20.82-16.55"/>
                <path class="cls-7" d="m842.06,170.69c8.39,4.17,12.6,8.49,18.21,15.75"/>
                <path class="cls-7" d="m885.05,152.79c2.28,6.24,2.54,13.2.73,19.58"/>
                <path class="cls-7" d="m907.9,177.47c4.74-1.43,8.61-5.42,9.89-10.2"/>
              </g>
            </g>
          </g>
        </g>
        <g>
          <circle class="cls-2" cx="656.28" cy="137.34" r="87.64" transform="translate(95.11 504.29) rotate(-45)"/>
          <g class="cls-30">
            <g>
              <path class="cls-13" d="m690.84,176.72s41.31,1.02,53.14,16.31c11.84,15.29,0,76.45,0,76.45h-169.99s7.66-51.13,12.91-63.7c9.36-22.38,22.31-27.04,47.46-26.5"/>
              <path class="cls-7" d="m619.21,183.87s12.94,36.23,24.2,36.23c19.91,0,68.42-37.94,68.42-37.94"/>
              <g>
                <path class="cls-11" d="m611.54,99.69c-3.01,5.69-4.31,12.27-3.71,18.67.13,1.36.33,2.78-.17,4.04-.37.92-1.07,1.66-1.75,2.39-2.29,2.48-4.46,5.2-5.5,8.42-1.03,3.22-.74,7.03,1.49,9.57,1.08,1.23,2.64,2.3,2.73,3.93.07,1.29-.85,2.4-1.45,3.55-1.3,2.48-1.15,5.52-.24,8.17.91,2.65,3.01,3.2,4.59,5.51l43.17-4.79"/>
                <path class="cls-12" d="m637.73,158.97v19.77l-12.46.61s9.9,33.21,19.45,33.21c16.9,0,59.14-34.8,59.14-34.8l-12.93-2.14-18.81-49.82-34.39,33.17Z"/>
                <path class="cls-12" d="m671.17,101.75c-.21-.56-.42-1.11-.65-1.66-2.35-5.74-5.47-11.22-10.35-15.17-5.73-4.62-10.77-4.63-17.68-4.54-10.57.13-20.77,6.94-24.95,16.65-3.46,8.03-2.91,17.16-1.93,25.85.76,6.73,1.74,13.44,2.93,20.11,1.22,6.78,2.96,14.04,8.2,18.51,5.83,4.97,14.58,5.05,21.78,2.43,24.37-8.9,30.95-39.94,22.65-62.17Z"/>
                <path class="cls-11" d="m705.72,144.92c-.31-.9-.52-1.83-.52-2.79,0-2.93,1.97-5.48,2.74-8.31,1.15-4.22-.51-8.79-3.24-12.21-1.29-1.61-2.83-3.07-3.66-4.95-1.29-2.93-.63-6.28-.42-9.47.57-8.74-2.53-18.47-7.94-25.29-8.23-10.38-20.25-16.69-33.31-18.79-11.66-1.87-23.48-.4-33.78,5.56-4.73,2.74-9.38,6-12.25,10.66-.76,1.23-1.39,2.54-2.3,3.66-1.23,1.52-2.9,2.6-4.47,3.78-2.55,1.92-4.93,4.2-6.31,7.09-1.59,3.33-1.72,8.27,1.19,10.92,2.41,2.2,5.48,3.55,8.6,4.54,1.89.6,3.82,1.06,5.75,1.45,1.58-5.45,4.1-10.62,7.45-15.19-1.29,5.26-1.94,10.67-1.94,16.08,6.01.71,12.13.73,18.19.72,1.1,0,2.2,0,3.3-.02.27-6.33,1.59-12.62,3.92-18.51-.06,6.16.73,12.32,2.3,18.28,4.83-.33,9.59-1.11,14.02-3.02.43-.18,5.26,9.86,5.68,10.81,5.19,11.91-.02,40.7-.02,40.7l39.35,1.92s3.26-5.31-.77-13.88c-.57-1.21-1.13-2.48-1.56-3.74Z"/>
                <path class="cls-7" d="m630.42,123.76c.72,3.95.64,7.64-.38,11.51-.53,2.03-2.24,5.31-.71,7.32.8,1.05,3.06,1.46,4.27,1.47"/>
                <path class="cls-7" d="m638.81,117.64c6.46-3.56,13.29-1.08,17.47,4.58"/>
                <path class="cls-7" d="m615.03,120.6c2.41-5.08,9.73-3.7,12.66-.22"/>
                <path d="m646.49,127.16c-.03,1.8-1.06,3.23-2.3,3.21-1.24-.02-2.21-1.5-2.18-3.29.03-1.8,1.06-3.23,2.3-3.21,1.24.02,2.21,1.5,2.18,3.29Z"/>
                <path d="m623.7,129.23c-.03,1.8-1.06,3.23-2.3,3.21-1.24-.02-2.21-1.5-2.18-3.29.03-1.8,1.06-3.23,2.3-3.21s2.21,1.5,2.18,3.29Z"/>
                <path class="cls-7" d="m634.38,148.7c1.15,1.18,3.1,1.82,4.62.97,1.91-1.07,2.48-3.99,1.95-5.95"/>
                <g>
                  <path class="cls-12" d="m665.94,127.5c1.17-5.8,6.78-11.89,13.45-7.97,2.23,1.31,3.66,3.57,4.39,5.95,1.64,5.34,1.05,11.62-1.78,16.54-1.52,2.65-4.14,5.13-7.33,5.11-3.04-.02-5.54-1.96-6.83-4.7"/>
                  <path class="cls-7" d="m667.85,142.43c1.29,2.74,3.78,4.69,6.83,4.7,1.69,0,3.04-.61,4.27-1.77"/>
                  <path class="cls-7" d="m665.94,127.5c1.17-5.8,6.78-11.89,13.45-7.97"/>
                  <line class="cls-7" x1="678.89" y1="127.49" x2="668.7" y2="137.34"/>
                </g>
                <path class="cls-7" d="m637.72,166.1c9.01.06,17.14-3.05,24.35-10.94"/>
              </g>
            </g>
          </g>
        </g>
        <g>
          <circle class="cls-2" cx="316.47" cy="152.25" r="94.04" transform="translate(-14.96 268.37) rotate(-45)"/>
          <g class="cls-23">
            <g>
              <path class="cls-14" d="m228.01,252.74s-.35-54.39,10.5-66.14c10.85-11.75,32.42-17.88,61.07-12.04,28.65,5.84,58.3,8.87,71.63,21.58,15.93,15.2,12.45,56.6,12.45,56.6h-155.65Z"/>
              <path class="cls-24" d="m346.34,162.54l-4.56,26.49s-1.34,10.23-19.63,10.23c-26.63,0-36.9-23.92-36.9-23.92l14.23-40.92,46.87,28.11Z"/>
              <path class="cls-24" d="m306.84,99.16c5.11-5.02,12.03-8.21,20.44-8.17,15.57.07,34.29,10.38,37.62,25.72,1.72,7.91,1.76,16.61,1.97,24.66.14,5.56-.2,11.97-1.22,17.56-1.54,8.49-6.07,15.03-13.02,19.05-7.73,4.47-17.97,2.99-25.88-1.21-11.64-6.18-20.42-19.25-25.41-30.75-3.21-7.41-4.84-15.56-4.48-23.56.4-8.79,3.9-17.34,9.97-23.3Z"/>
              <path class="cls-7" d="m354.01,135.48c.38,4.99,1.78,9.9,3.98,14.39.39.79.81,1.59.96,2.46.68,3.97-4.48,3.79-7.04,3.83"/>
              <path class="cls-7" d="m346.8,130.72c-4.85-5.99-13.68-3.15-18.9,1.37"/>
              <path class="cls-7" d="m367.21,133.02c-2.36-5.3-8.57-3.87-10.89-.26"/>
              <path d="m340.12,141.08c.09,1.88,1.21,3.35,2.51,3.29,1.3-.06,2.27-1.63,2.19-3.51-.09-1.88-1.21-3.35-2.51-3.29-1.3.06-2.27,1.63-2.19,3.51Z"/>
              <path d="m360.77,143.12c.09,1.88,1.21,3.35,2.51,3.29,1.3-.06,2.27-1.63,2.19-3.51-.09-1.88-1.21-3.35-2.51-3.29-1.3.06-2.27,1.63-2.19,3.51Z"/>
              <path class="cls-7" d="m343.09,181.43c-13.18-1.55-22.76-8.63-26.99-17.24"/>
              <path class="cls-25" d="m335.57,104.59c-.49-1.22-1.4-2.26-2.38-3.2-6.82-6.63-16.84-9.55-26.39-12.21l-3.57.2c-10.53,3.78-17.83,15.35-19.07,25.56-.65,5.34-.27,12.17,1.08,17.41,2.37,9.19,4.49,13.24,8.09,22.14,7.27-2.91,13.86-7.76,16.71-14.49.66-1.56,1.4-3.03,1.89-4.61.52-1.67,1.01-4.54,3.07-5.01,2.06-.47,3.45,1.94,5.34,2.15.63.07,1.26-.13,1.85-.35,9.98-3.8,17.55-17.21,13.37-27.57Z"/>
              <g>
                <path class="cls-24" d="m316.27,136.98c-1.81-5.15-7.72-9.99-13.32-5.55-1.87,1.48-2.89,3.74-3.25,6-.81,5.1.54,10.75,3.75,14.89,1.73,2.22,4.44,4.15,7.35,3.73,2.78-.41,4.81-2.5,5.63-5.18"/>
                <path class="cls-7" d="m316.45,150.87c-.82,2.67-2.85,4.77-5.63,5.18-4.52.66-8.61-3.73-9.53-7.8"/>
                <path class="cls-7" d="m316.27,136.98c-1.81-5.15-7.72-9.99-13.32-5.55"/>
                <line class="cls-7" x1="304.43" y1="138.64" x2="315.01" y2="146.33"/>
              </g>
              <path class="cls-32" d="m351.61,79.4c-1.46-.38-2.95-.65-4.47-.79-4.25-.4-8.92,1.32-11,5.04-5.34-6.6-14.48-9.36-22.91-8.34-7.52.91-14.68,4.62-19.76,10.24-5.09,5.62-8.06,13.1-8.22,20.68-.04,2.05.19,4.28,1.59,5.77,1.36,1.44,3.56,1.84,5.51,1.49,1.95-.34,3.73-1.31,5.47-2.27-1.55,2.88-.15,6.73,2.55,8.58,2.7,1.84,6.29,1.95,9.43,1.05,3.14-.9,5.94-2.7,8.68-4.47,2.05-1.32,4.09-2.64,6.14-3.96-.92,1.63-.36,3.82.96,5.15,1.32,1.33,3.25,1.9,5.12,2,4.34.23,8.72-1.99,11.1-5.62,1.31-2,2.03-4.35,3.49-6.23,5.13-6.64,12.75-3.71,16.13,2.56,3.22,5.97,4.4,11.74,5.02,18.95,1.86-.16,4.42-.36,5.5-1.27,1.9-1.6,2.19-4.04,1.64-6.35-.45-1.9-1.22-3.72-2.27-5.37,1.43.55,3.14-.21,4-1.48.86-1.27,1.01-2.91.8-4.43-.43-3.14-2.33-6.05-5.04-7.7,1.88-.69,2.78-2.98,2.49-4.96-.29-1.98-1.5-3.7-2.76-5.25-4.89-6.01-11.61-11.02-19.2-13Z"/>
              <path class="cls-7" d="m336.03,84.03c6.97,5.96,12.69,12.71,16.88,19.95"/>
              <path class="cls-7" d="m343.99,157.32c.39,1.44.93,2.87,1.87,4.02.94,1.16,2.32,2.02,3.8,2.07,1.49.05,3.03-.87,3.47-2.29"/>
              <line class="cls-7" x1="279.49" y1="252.74" x2="277.14" y2="208.89"/>
              <path class="cls-7" d="m355,252.74c1.58-19.13,8.19-31.48,8.19-31.48"/>
              <path class="cls-7" d="m280.53,179.21c9.64,21.04,30.15,28.53,48.57,25.14"/>
              <path class="cls-7" d="m333.37,203.57c7.82-1.34,12.49-8.9,12.97-14.72"/>
            </g>
          </g>
        </g>
      </g>
      <circle class="cls-26" cx="903.48" cy="561.57" r="25.65" transform="translate(-159.47 603.77) rotate(-34.14)"/>
      <circle class="cls-26" cx="107.86" cy="186.67" r="34.42"/>
      <circle class="cls-26" cx="413.03" cy="30.43" r="19.36" transform="translate(88.88 288.21) rotate(-42.71)"/>
      <g>
        <polyline class="cls-9" points="26.6 598.13 41.17 583.56 55.74 598.13 70.31 583.56 84.88 598.13 99.46 583.56 114.03 598.13 128.6 583.56 143.17 598.13"/>
        <polyline class="cls-9" points="41.17 564.47 55.74 579.04 70.31 564.47 84.88 579.04 99.46 564.47 114.03 579.04"/>
      </g>
      <g>
        <polyline class="cls-9" points="840.56 67.54 849.97 58.12 859.39 67.54 868.81 58.12 878.23 67.54 887.65 58.12 897.07 67.54 906.48 58.12"/>
        <polyline class="cls-9" points="840.56 52.27 849.97 42.85 859.39 52.27 868.81 42.85 878.23 52.27 887.65 42.85 897.07 52.27 906.48 42.85"/>
      </g>
      <circle class="cls-2" cx="882.58" cy="523.02" r="38.55"/>
      <path class="cls-39" d="m901.85,515.48c0-10.64-8.63-19.27-19.27-19.27s-19.27,8.63-19.27,19.27c0,.73.05,1.45.13,2.16h0c1.13,13.28,11.91,32.2,19.15,32.2s18.02-18.92,19.15-32.2h0c.08-.71.13-1.43.13-2.16Zm-19.27,6.11c-3.37,0-6.11-2.73-6.11-6.11s2.73-6.11,6.11-6.11,6.11,2.73,6.11,6.11-2.73,6.11-6.11,6.11Z"/>
      <g>
        <circle class="cls-37" cx="131.98" cy="443.21" r="45.6"/>
        <g>
          <path class="cls-2" d="m162.37,459.65c-.34-.68-3.88-.07-6.69-2.22-2.8-2.15-4.86-7.05-4.86-10.99v-12.75c0-11.67-6.45-20.84-18.84-20.84s-18.84,9.17-18.84,20.84v12.75c0,3.94-2.06,8.84-4.86,10.99-2.8,2.15-6.35,1.54-6.69,2.22-.68,1.35.46,2.78,2.81,4.31,2.34,1.53,3.58-.35,5.6.82,1.94,1.13.77,2.42,3.35,3.68,3.19,1.56,3.44-1.67,8.4.74,1.75.85,2.3,4.37,10.23,4.37s8.48-3.52,10.23-4.37c4.96-2.41,5.21.82,8.4-.74,2.58-1.26,1.4-2.55,3.35-3.68,2.02-1.17,3.25.71,5.6-.82,2.34-1.53,3.48-2.96,2.81-4.31Z"/>
          <g>
            <path class="cls-2" d="m145.38,434.9c2.27,2.18,6.54,2.76,9.56,1.29.15-.08.32-.16.49-.16.56-.02.73.61.62,1.06-.47,2.1-2.7,3.78-5.24,4.33-2.54.55-5.29.1-7.62-.89"/>
            <path class="cls-2" d="m118.57,434.9c-2.27,2.18-6.54,2.76-9.56,1.29-.15-.08-.32-.16-.49-.16-.56-.02-.73.61-.62,1.06.47,2.1,2.7,3.78,5.24,4.33,2.54.55,5.29.1,7.62-.89"/>
          </g>
        </g>
      </g>
      <circle class="cls-39" cx="202.54" cy="150.95" r="38.19"/>
      <g>
        <circle class="cls-2" cx="202.54" cy="170.29" r="3.95"/>
        <path class="cls-2" d="m212.69,161.1l-3.47,3.47c-3.68-3.68-9.67-3.68-13.36,0l-3.47-3.47c5.59-5.59,14.7-5.59,20.29,0Z"/>
        <path class="cls-2" d="m220.8,153l-3.47,3.47c-8.15-8.15-21.42-8.15-29.57,0l-3.47-3.47c10.07-10.07,26.44-10.07,36.51,0Z"/>
        <path class="cls-2" d="m230.27,143.52l-3.47,3.47c-13.38-13.38-35.15-13.38-48.53,0l-3.47-3.47c15.29-15.29,40.17-15.29,55.46,0Z"/>
      </g>
      <g>
        <circle class="cls-35" cx="570.65" cy="615.05" r="58.26" transform="translate(-169.39 1010.35) rotate(-75.25)"/>
        <path class="cls-2" d="m580.55,590.77h10.05v-14.94h-16.29c-8.62,0-15.61,6.99-15.61,15.61v10.01h-8.01v14.41h8.01v38.43h16.95v-38.43h13.6l.67-14.41h-14.28v-5.77c0-2.71,2.19-4.9,4.9-4.9Z"/>
      </g>
      <g>
        <circle class="cls-14" cx="959.67" cy="315.67" r="56.18" transform="translate(428.57 1175.06) rotate(-76.49)"/>
        <path class="cls-2" d="m927.07,342.59c7.48-.26,14.57-1.41,20.98-6.13-6.63-.72-11.12-3.92-13.57-10.18,2.15.3,4.11.38,6.29-.27-7.19-2.26-10.91-6.97-11.47-14.39,2.19.69,4.06,1.92,6.53,1.69-7.71-5.94-7.36-14.98-4.26-19.33,4.39,5.29,9.73,9.3,16.07,11.94,2.66,1.11,5.41,1.93,8.25,2.5,1.56.31,3.12.4,4.68.58.85.1.95-.23.85-.97-1-7.56,3.12-14.32,10.34-16.19,4.96-1.29,9.84-.67,13.76,3.09,1.02.99,2.11.83,3.02.54,1.99-.64,3.87-1.62,5.8-2.46.29-.13.59-.47.91-.15.3.3,0,.63-.13.92-1.16,2.62-3.03,4.65-5.63,6.46,2.83-.24,5.18-1.01,7.58-1.96.09.84-.45,1.18-.78,1.6-1.38,1.81-2.96,3.44-4.78,4.79-.84.62-1.06,1.27-1.09,2.28-.35,15.25-5.95,29.31-18.77,37.79-7.33,6.64-30.91,9.96-44.59-2.15Z"/>
      </g>
      <circle class="cls-39" cx="738.12" cy="58.21" r="43.16" transform="translate(175.03 538.98) rotate(-45)"/>
      <path class="cls-2" d="m762.08,54.33l-32.77-18.92c-2.98-1.72-6.72.43-6.72,3.88v37.84c0,3.45,3.73,5.6,6.72,3.88l32.77-18.92c2.98-1.72,2.98-6.03,0-7.76Z"/>
      <g>
        <circle class="cls-2" cx="68.5" cy="305.37" r="68.5"/>
        <g>
          <path class="cls-29" d="m60.54,356.13c-16.11,0-29.21-13.1-29.21-29.21s13.1-29.21,29.21-29.21v12.68c-9.12,0-16.53,7.42-16.53,16.53s7.42,16.53,16.53,16.53,16.53-7.42,16.53-16.53v-65.8h12.64c.11.94,3.04,23.58,22.48,23.58v12.68c-9.76,0-17.08-3.57-22.44-8.63v38.18c0,16.11-13.1,29.21-29.21,29.21Z"/>
          <path class="cls-27" d="m54.02,349.62c-16.11,0-29.21-13.1-29.21-29.21s13.1-29.21,29.21-29.21v12.68c-9.12,0-16.53,7.42-16.53,16.53s7.42,16.53,16.53,16.53,16.53-7.42,16.53-16.53v-65.8h12.64c.11.94,3.04,23.58,22.48,23.58v12.68c-9.76,0-17.08-3.57-22.44-8.63v38.18c0,16.11-13.1,29.21-29.21,29.21Z"/>
          <path class="cls-38" d="m105.68,283.73c-4.95-1.57-8.39-4.88-10.78-8.5-5.61-3.51-8.6-9.49-10.14-14.11h-7.68v65.8c0,9.12-7.42,16.53-16.53,16.53-6.23,0-11.66-3.46-14.48-8.57-5.1-2.82-8.57-8.25-8.57-14.48,0-9.12,7.42-16.53,16.53-16.53v-5.42c-12.98,2.97-22.7,14.6-22.7,28.47,0,6.39,2.07,12.31,5.57,17.13,4.82,3.5,10.73,5.57,17.13,5.57,16.11,0,29.21-13.1,29.21-29.21v-38.18c5.36,5.06,12.68,8.63,22.44,8.63v-7.13Z"/>
        </g>
      </g>
      <polygon class="cls-6" points="51.25 488.35 60.53 530 95.63 496.65 51.25 488.35"/>
      <polygon class="cls-6" points="313.88 326.09 282.33 339.89 314.18 362.54 313.88 326.09"/>
      <polygon class="cls-6" points="951.2 401.61 911.38 395.1 928.3 437.64 951.2 401.61"/>
      <polygon class="cls-6" points="543.52 131.25 548.7 106.63 521.72 115.97 543.52 131.25"/>
      <polygon class="cls-6" points="337.1 7.65 319.59 24.13 345.85 31.54 337.1 7.65"/>
      <path class="cls-9" d="m927.07,242.79c0,5.66-4.59,10.25-10.25,10.25s-10.25-4.59-10.25-10.25,4.59-10.25,10.25-10.25,10.25,4.59,10.25,10.25Z"/>
      <circle class="cls-9" cx="434.37" cy="569.13" r="8.75"/>
      <circle class="cls-9" cx="138.07" cy="186.67" r="8.75"/>
      <circle class="cls-6" cx="442.8" cy="629.44" r="24.89"/>
      <circle class="cls-6" cx="581.74" cy="486.54" r="11.09"/>
      <circle class="cls-6" cx="768.79" cy="19.59" r="18.5" transform="translate(637.59 777.36) rotate(-81.64)"/>
      <polyline class="cls-9" points="944.01 479.76 953.43 470.34 962.85 479.76 972.27 470.34 981.69 479.76 991.11 470.34 1000.52 479.76 1009.94 470.34"/>
      <polyline class="cls-9" points="708.47 342.11 717.88 332.69 727.3 342.11 736.72 332.69 746.14 342.11"/>
      <polyline class="cls-9" points="689.63 360.84 699.05 351.42 708.47 360.84 717.88 351.42 727.3 360.84 736.72 351.42 746.14 360.84 755.56 351.42"/>
      <g>
        <path class="cls-4" d="m548.56,322.32c-.26-1.03-.91-1.89-1.84-2.43-.91-.53-1.97-.67-2.99-.41-1.81.46-3.64.71-5.42.73h-1.92s.66-1.79.66-1.79c2.02-5.49,3.25-10.49,3.4-13.72.25-5.81-2.2-11.44-6.27-14.37-3.25-2.34-7.29-2.78-11.37-1.2-5.05,1.94-8.06,7.78-8.26,16-.07,2.49.26,8.89,4.66,14.46,1.47,1.87,3.25,3.47,5.33,4.78l1.02.65-.56,1.07c-2.78,5.35-7.14,12.45-12.23,16.04-3.6,2.55-5.72,1.92-6.42,1.71l-.21-.08c-1.14-.57-2.45-2.33-4.22-11.21-.75-3.76-1.2-7.79-1.34-11.97v-.24s.07-.22.07-.22c4.75-13.95,5.01-26.97,4.08-29.44-.53-1.43-1.71-2.43-3.15-2.69-1.32-.24-2.69.21-3.67,1.19-1.89,1.96-5.5,14.17-5.33,29.61v.24s-.08.24-.08.24c-2.45,6.67-5.64,12.49-9.49,17.31l-.37.46c-2.29,2.87-4.87,6.11-7.61,7.78-1.22.74-2.18.95-2.94.64-1.27-.52-3-2.74-4-6.55-4.02-15.35-3.56-32.2,1.34-48.74.3-1.01.2-2.09-.32-3.02-.5-.93-1.34-1.61-2.36-1.91-.38-.12-.75-.17-1.14-.17-.65,0-1.3.16-1.89.49-.93.5-1.6,1.34-1.91,2.36-5.31,17.93-5.8,36.25-1.42,53,1.56,5.95,4.74,10.29,8.71,11.91,3.14,1.26,6.62.86,10.04-1.22,3.94-2.41,7.13-6.4,9.69-9.62l.37-.46c1.12-1.4,2.21-2.9,3.23-4.45l1.72-2.58.67,3.02c1.34,5.9,3.47,12.16,9.17,13.91,2.99.91,7.73,1.18,13.35-2.8,5.21-3.68,10.65-10.81,15.3-20.06l.42-.86.95.15c3.82.57,7.74.34,11.67-.66,1.02-.26,1.88-.93,2.42-1.84.54-.91.69-1.97.42-3Zm-19.09-6.22l-.65,1.72-1.43-1.16c-.71-.61-1.38-1.27-1.95-2-2.87-3.64-2.99-8.07-2.95-9.34.11-4.5,1.4-8.11,3.16-8.79.71-.26,1.34-.4,1.93-.4,1.07,0,1.69.44,1.96.64,1.83,1.31,3.11,4.56,2.98,7.57-.12,2.66-1.23,6.95-3.06,11.76Z"/>
        <circle class="cls-21" cx="560.76" cy="322.67" r="4.59"/>
        <text class="cls-3" transform="translate(445.89 385.22)"><tspan x="0" y="0">whis</tspan><tspan class="cls-1" x="75.33" y="0">p</tspan><tspan x="97.47" y="0">er</tspan></text>
      </g>
    </g>
  </g>
</svg>