<?xml version="1.0" encoding="UTF-8"?>
<svg id="Layer_2" data-name="Layer 2" xmlns="http://www.w3.org/2000/svg" viewBox="0 0 625.45 770.37">
  <defs>
    <style>
      .cls-1, .cls-2, .cls-3, .cls-4, .cls-5, .cls-6, .cls-7, .cls-8, .cls-9, .cls-10, .cls-11 {
        fill-rule: evenodd;
      }

      .cls-1, .cls-12, .cls-13 {
        fill: #1b143e;
      }

      .cls-2 {
        fill: #7c1e35;
      }

      .cls-3 {
        fill: #fff;
      }

      .cls-12 {
        font-family: VastagoGrotesk-SemiBold, 'Vastago Grotesk';
        font-size: 202.97px;
        font-weight: 600;
      }

      .cls-4 {
        fill: #fafffd;
      }

      .cls-5 {
        fill: #bc5249;
      }

      .cls-6 {
        fill: #f58f29;
      }

      .cls-7 {
        fill: #d7d8d8;
      }

      .cls-8 {
        fill: #4a3c4d;
      }

      .cls-9 {
        fill: #d4775e;
      }

      .cls-10 {
        fill: #34365c;
      }

      .cls-11 {
        fill: #9b1c2b;
      }
    </style>
  </defs>
  <g id="Layer_1-2" data-name="Layer 1">
    <g>
      <path class="cls-6" d="m506.18,550.66c-104.31,201.27-419.52,138.15-486.39-61.44C-29.85,341.05,93.7,221.06,253.48,227.6c183.93,7.53,331.28,152.74,252.69,323.06Z"/>
      <g>
        <path class="cls-1" d="m141.34,385.5c29.07-42.05,45.73-71.48,48.68-69.54,7.28,4.8.14,25.44.14,25.44,0,0-2.83,17.37-9.65,30.77-6.83,13.4-66.18,52.39-39.17,13.33Z"/>
        <g>
          <path class="cls-9" d="m412.57,676.41c9.24,28.58,13.05,42.82,13.05,42.82-5.46,16.9-8.69,33.8-11.28,51.14h74.62c17.77-51.11,15.35-58.81-5.19-128.75,0,0-80.45,6.21-71.21,34.79Z"/>
          <path class="cls-1" d="m412.57,676.41c1.83,5.66,3.45,10.76,4.87,15.3,23-2.85,54.46-5.26,78.51-6.86-2.69-10.89-6.48-23.86-11.33-40.38l-64.67,14.33c-6.34,4.62-9.71,10.4-7.38,17.6Z"/>
          <path class="cls-9" d="m225.8,423.27c.54,40.6,9.09,53.94-19.39,63.76-28.49,9.82,53.54,78.66,71.42,73.3,17.88-5.35,67.07-62.85,64.16-68.01-2.91-5.17-31.26-11.2-29.33-27.45,1.93-16.25,2.95-45.96,2.95-45.96,0,0-90.34-36.23-89.8,4.36Z"/>
          <path class="cls-1" d="m227.41,458.33c27.27,22.19,59.84,19.97,85.53,3.97,1.74-16.62,2.66-43.39,2.66-43.39,0,0-90.34-36.23-89.8,4.36.2,15.02,1.5,26.3,1.61,35.06Z"/>
          <path class="cls-11" d="m219.37,476.49c-38.66,13.44-66.85,3.83-90.59,17.55-23.74,13.72-69.05,114.72-69.05,114.72,13.26-1.49,11.54,6.13,20.91,3.51,52.55-14.68,68.66-21.44,70.09-10.34,1.46,19.56-9.97,116.91-16.34,168.44h255.5l-9.98-147.75,32.55,59.13,84.29-24.3s-41.77-109.93-59.88-129.54c-27.1-29.34-55.09-33.36-112.36-48.27-1.38-3.25-17.83,16.68-39.22,27.98-6.37,3.36-10.25,8.11-17.9,8.49-12.71.63-37.36-43.34-48.04-39.62Z"/>
          <path class="cls-2" d="m304.17,495.02c-5.54,4.38-11.95,8.95-18.87,12.6-6.37,3.36-10.25,8.11-17.9,8.49-5.44.27-13.07-7.63-20.85-16.47-6.11.63-10.11,1.06-10.11,1.06l-13.79,47.21c3.71-3.18,37.66-27.05,37.66-27.05l11.67-2.65,42.44,28.11s-2.12-48.8-5.84-50.92c-.48-.27-2.05-.39-4.41-.38Z"/>
          <path class="cls-2" d="m200.37,693.25l-17.5,1.06s36.6,10.08,107.15,6.37c70.55-3.71,59.41-11.14,59.41-11.14,0,0-73.73-.53-149.06,3.71Z"/>
          <g>
            <path class="cls-2" d="m69.22,609.7c3.91,1.63,5.31,4.28,11.42,2.57,52.55-14.68,68.66-21.44,70.09-10.34.21,2.83.15,7.3-.12,13.03,1.63-1.79,2.55-2.87,2.55-2.87l-5.31-41.9s-27.58,2.12-55.7,12.73c0,0-11.63,12.64-22.94,26.78Z"/>
            <path class="cls-2" d="m380.14,623.02l32.33,58.72,50.57-14.58c10.03-14.73,19.53-29.62,19.53-29.62l-56.76,8.49s-19.63-37.66-39.25-58.35l-6.9,33.95.48,1.38Z"/>
          </g>
          <path class="cls-1" d="m300.26,498.03c-4.57,3.41-9.61,6.77-14.95,9.59-6.37,3.36-10.25,8.11-17.9,8.49-8.44.42-22.16-18.85-33.55-30.74-1.99-.13-19.03,14.3-11.64,64.71,4.77-10.34,26.79-32.62,26.79-32.62l18.83,2.39,20.16-3.71,26.79,29.71s-9.05-31.52-14.52-47.81Z"/>
          <path class="cls-8" d="m205.5,491.99c-.22,12.48,17.29,57.11,17.29,57.11,0,0,17.94-42.16,22.84-41.21,4.9.94,17.23,7,17.23,7-3.33,1.82-25.51-32.69-28.67-36.93-5-6.69-7.09-20.55-6.82-29.84,0-.28-21.21,7.07-21.87,43.87Z"/>
          <path class="cls-8" d="m399.45,667.6c20.21-12.67,95.12-45.21,95.12-45.21l13.63,42.69-96,24.75s-19.44-18.04-12.76-22.23Z"/>
          <path class="cls-8" d="m333.95,491.99c-.23,12.48-19.34,57.11-19.34,57.11,0,0-16.43-42.16-21.36-41.21-4.93.94-17.49,7-17.49,7,0,0,19.18-23.77,29.38-36.8,5.24-6.69,9.77-20.68,8.51-29.97-.04-.27,20.96,7.07,20.29,43.87Z"/>
          <path class="cls-1" d="m270.05,517.41c.03-.83.72-1.47,1.55-1.44.83.03,1.47.72,1.45,1.55l-2.3,59.66c-.03.83-.72,1.47-1.55,1.44l-14.65-.7c-.83-.04-1.47-.74-1.43-1.57.04-.83.74-1.47,1.57-1.43l13.12.63,2.24-58.14Z"/>
          <path class="cls-1" d="m143.27,550.84c-.19-.81.32-1.61,1.13-1.8.81-.18,1.61.32,1.8,1.13,2.96,12.79,4.73,27.49,5.74,38.64,1.93-19.58,4.78-50.71,5.13-66.33.01-.83.7-1.49,1.53-1.47.83.02,1.48.7,1.47,1.53-.53,23.96-6.88,83.77-6.9,83.94-.08.72-.68,1.31-1.43,1.34-.83.04-1.53-.6-1.56-1.43,0-.09-1.29-31.3-6.9-55.54Z"/>
          <path class="cls-1" d="m391.83,564.34c.26-.78,1.12-1.2,1.9-.94.78.26,1.2,1.12.94,1.9-8.24,24.24-12.92,55.46-12.93,55.55-.12.82-.88,1.39-1.7,1.27-.79-.12-1.34-.82-1.28-1.6,0-2.79.19-60.5,2.21-83.82.07-.83.8-1.44,1.63-1.37.83.07,1.44.8,1.37,1.63-1.35,15.61-1.88,46.52-2.08,66.08,2.22-11.15,5.59-25.88,9.95-38.7Z"/>
          <path class="cls-1" d="m433.49,719.57c-.74.38-1.64.09-2.02-.64-.38-.74-.09-1.64.64-2.02,16.93-8.74,44.96-2.27,45.04-2.25.81.18,1.31.98,1.13,1.79-.18.81-.98,1.31-1.79,1.13-.08-.02-27.06-6.24-43.01,1.99Z"/>
          <path class="cls-1" d="m199.8,695.33c-.83.07-1.56-.54-1.63-1.37-.07-.83.54-1.56,1.37-1.63,73.27-6.37,143.21-3.19,143.41-3.18.83.04,1.47.73,1.43,1.56-.03.83-.73,1.47-1.56,1.43-.2,0-69.89-3.18-143.03,3.18Z"/>
          <path class="cls-1" d="m297.52,597.18c-.82.13-1.59-.42-1.72-1.24s.42-1.59,1.24-1.72c23.04-3.75,65.03,2.1,65.16,2.12.82.11,1.4.86,1.29,1.69-.11.82-.87,1.4-1.69,1.29-.12-.01-41.69-5.8-64.27-2.13Z"/>
        </g>
        <path class="cls-3" d="m261.35,361.17c1.29-.19,1.82,1.76,1.17,4.37-.65,2.61-2.23,4.88-3.52,5.08-1.29.19-1.81-1.76-1.17-4.37.65-2.61,2.22-4.88,3.52-5.08Z"/>
        <g>
          <g>
            <path class="cls-9" d="m180.03,352.17c-11.46,6.38-8.67,20.47-3.86,34.81,4.8,14.34,14.26,22.82,24.59,18.41,10.34-4.41,14.83-19.62,10.03-33.96-4.81-14.34-20.84-24.78-30.75-19.26Z"/>
            <path class="cls-9" d="m199.09,312.65c1.13,31.27,2.15,70.67,3.54,93.09,1.86,29.93,39.81,51.21,64.15,50.33,24.23-.87,62.45-18.51,65.44-55.72l7.08-88.37s-29.13-35.53-63.54-39.11c-34.41-3.58-78.21-2.73-76.68,39.78Z"/>
            <path class="cls-5" d="m331.7,303.81c-9.12-9-25.59-22.97-44.73-28.67-19.59-.98-35.34-2.3-47.37-2.92-13.38,1.45-25.37,5.47-32.78,14.24-4.38,12.61-8.35,32.22,6.24,43.89,12.2-22.28,13.79-27.05,13.79-27.05l42.97,6.9-5.84-8.89,27.19,10.88-2.39-7.43s20.95,4.64,26.26,18.7c5.3,14.06,15.65,21.75,16.71,28.38,1.06,6.63,5.57-38.72,1.06-45.35-.49-.72-.83-1.62-1.12-2.66Z"/>
            <path class="cls-9" d="m356.93,356.25c10.85,7.63,6.84,21.34.8,35.07-6.03,13.73-16.18,21.12-26.08,15.58-9.9-5.53-13.04-21.17-7-34.91,6.04-13.73,22.91-22.34,32.28-15.75Z"/>
            <path class="cls-5" d="m350.32,366.12c5.73,4.03,3.48,13.25.29,20.5-3.19,7.25-9.34,13.01-14.57,10.08-2.07-1.16,3.48-5.25,3.62-8.27.08-1.62-5.46-1.9-5.47-3.59-.01-3.11,1.41-7.31,2.66-10.15,3.19-7.25,8.51-12.06,13.46-8.58Z"/>
            <path class="cls-1" d="m352.86,379.82c-.21.8-1.03,1.28-1.83,1.07-.8-.21-1.28-1.03-1.07-1.83.98-3.71,1.29-6.95.88-9.26-.19-1.08-.53-1.91-1.03-2.42-.4-.41-.97-.62-1.7-.58-.98.06-2.22.52-3.74,1.46-4.17,2.57-7.84,11.99-9.11,15.56.8.3,1.81.76,3.11,1.49l.11.07c6.02,3.56-.92,11.61-.94,11.63-.54.63-1.49.7-2.12.17-.63-.54-.7-1.49-.16-2.12.01-.01,4.62-5.37,1.68-7.12l-.05-.03c-2.81-1.59-2.87-1.81-2.86-1.84-.34.17-.74.21-1.13.08-.79-.25-1.22-1.1-.97-1.88.01-.04,4.74-14.8,10.86-18.57,1.96-1.21,3.68-1.81,5.14-1.9,1.67-.1,3,.43,4.03,1.48.93.96,1.54,2.32,1.83,3.99.48,2.73.15,6.42-.94,10.54Z"/>
            <path class="cls-1" d="m184.13,377.65c.14.82-.41,1.59-1.23,1.73-.82.14-1.59-.41-1.73-1.23-.72-4.24-.73-7.97,0-10.64.44-1.61,1.16-2.89,2.16-3.74,1.1-.93,2.46-1.32,4.09-1.06,1.46.23,3.14,1.03,5.01,2.47l.1.09c5.69,4.53,9.05,19.53,9.06,19.58.18.81-.32,1.61-1.13,1.79-.35.08-.7.03-1-.12,0,.01-.19.15-3.15,1.43l-.08.03c-3,1.42,1.1,7.23,1.11,7.25.47.68.31,1.61-.37,2.09-.68.47-1.61.31-2.08-.37-.02-.03-6.21-8.78.08-11.68l.15-.07c1.34-.58,2.38-.93,3.18-1.14-.96-3.71-3.76-13.37-7.65-16.44l-.06-.04c-1.46-1.12-2.67-1.72-3.65-1.88-.7-.11-1.26.03-1.68.39-.52.44-.93,1.21-1.21,2.23-.62,2.25-.59,5.52.06,9.34Z"/>
            <path class="cls-1" d="m271.18,311.58c-1.29-.51-5.12-1.52-15.48-3.43-19.83-3.68-34.03-16.33-34.03-16.33,0,0-2.76,1.86-.9,13.97,1.86,12.11-5.77,22.96-13.81,36.81-8.04,13.84-7.78,43.73-7.78,43.73l-18.27-80.65s-.44-17.84,17.33-21.65c2.41-.51,3.85-13.16,10.41-25.27,2.84-5.25,7.49-10.46,11.65-14.54,4.11-4.96,7.34-7.22,7.34-7.22,0,0-.06.28-.18.77,1.11-.92,1.78-1.44,1.78-1.44l-2.81,5.98c-1.32,5.92-3.2,14.91-2.95,16.69.38,2.7,4.61-15.62,15.49-24.83,10.88-9.2,15.82-9.6,15.82-9.6l-5.43,18.67c25.15-17.66,62.48-8.07,62.48-8.07l-7.68,8.09c18.93-1.7,30.46,4.28,30.46,4.28,0,0-14.76,3.78-19.89,5.78.88.25,1.73.51,2.57.77,11.69-1.07,34.3,1.26,40.91,11.76l-16.58,1.81c9.1,8.24,11.84,16.2,11.84,16.2l-10.34,5.64s.09.26.24.76c9.73,3.18,13.93,4.22,13.93,4.22-10.77,28.82-10.98,59.28-24.78,87.99,0,0,3.16-28.14-5.35-40.2-8.5-12.05-4.96-23.89-12.72-30.45-7.76-6.55-26.76-12.76-26.76-12.76l4.48,13.51-29.6-20.17,8.6,19.16c1.18.47.24.54.24.54l-.24-.54Z"/>
            <path class="cls-10" d="m315.02,289.61c12.04-.41,23.69-1.6,34.46-3.55l4-2.18s-2.55-7.41-10.91-15.33h-1.94c-42.17,9.49-94.33,14.27-133.38-7.05-1.36,2.84-2.47,5.65-3.4,8.28,33.18,15.77,75.44,21.06,111.17,19.83Z"/>
          </g>
          <g>
            <g>
              <path class="cls-5" d="m258.07,416.3c6.52-.22,18.5-.56,18.5-.56,0,0,.79,7.28-10.07,6.95-4.19-.12-6.55-.4-8.42-1.94-1.89-1.55-3.28-4.35,0-4.46Z"/>
              <path class="cls-1" d="m284.68,346.97c.02-.83.7-1.49,1.53-1.47.83.02,1.48.7,1.47,1.53v.02c-.02,2.41.72,4.58,1.94,6.15,1.14,1.47,2.68,2.39,4.38,2.41h0s.14,0,.14,0c1.66-.03,3.2-.91,4.34-2.34,1.26-1.56,2.05-3.73,2.07-6.14,0-.83.68-1.49,1.51-1.49.83,0,1.49.68,1.49,1.51-.03,3.12-1.08,5.95-2.73,8-1.71,2.11-4.06,3.42-6.67,3.45h-.15s0,0,0,0h-.01c-2.67-.03-5.05-1.39-6.74-3.57-1.6-2.07-2.58-4.9-2.56-8v-.07Z"/>
              <path class="cls-1" d="m283.76,403.87c-.14.82-.93,1.36-1.75,1.22-19.14-3.41-28.74-1.13-30.31-1.41-.82-.15-1.36-.93-1.21-1.74.4-2.2,2.74-3.98,6.21-5.07,3.08-.97,7.17-1.47,11.53-1.27,1.76.08,3.44.27,4.99.55,2.99.54,5.53,1.41,7.33,2.49,2.13,1.28,3.34,2.91,3.25,4.73,0,.19-.02.36-.05.5Z"/>
              <path class="cls-1" d="m231.54,349.29c0-.83.68-1.49,1.51-1.48.83,0,1.49.68,1.49,1.51-.02,2.47.58,4.71,1.57,6.32.85,1.39,1.97,2.26,3.14,2.28h0s.13,0,.13,0c1.14-.04,2.23-.87,3.08-2.19,1.01-1.57,1.65-3.78,1.68-6.24v-.04c0-.83.68-1.49,1.51-1.49.83,0,1.49.68,1.49,1.51v.05c-.03,3.05-.85,5.82-2.15,7.83-1.4,2.17-3.36,3.52-5.58,3.57h-.16s0,0,0,0h0c-2.3-.02-4.31-1.44-5.7-3.7-1.26-2.05-2.03-4.85-2-7.92Z"/>
              <path class="cls-1" d="m259.32,374.36c6.52-.21,18.5-.56,18.5-.56,0,0,.79,7.27-10.07,6.95-4.19-.12-6.54-.4-8.42-1.94-1.89-1.55-3.28-4.35,0-4.46Z"/>
              <path class="cls-1" d="m287.77,328.62c1.07.55,3.27.78,6.84,1.17,11.1,1.2,15.46,2.44,14.45.37-2.61-5.4-9.71-8.87-14.05-9.1-7.15-.38-11.16,5.53-7.25,7.57Z"/>
              <path class="cls-1" d="m247.39,324.2c2.91,4.67,1.73,4.72-6.19,5.58-11.1,1.2-15.45,2.44-14.45.37,4.04-8.35,18.64-9.16,20.63-5.95Z"/>
            </g>
            <g>
              <path class="cls-5" d="m288.36,379.81c0-5.01,7.05-9.08,15.73-9.08s15.74,4.07,15.74,9.08-7.05,9.08-15.74,9.08-15.73-4.07-15.73-9.08Z"/>
              <path class="cls-5" d="m207.31,381.58c0-5.01,7.5-9.08,16.74-9.08s16.74,4.07,16.74,9.08-7.5,9.08-16.74,9.08-16.74-4.07-16.74-9.08Z"/>
            </g>
          </g>
        </g>
        <g>
          <path class="cls-8" d="m15.34,566.79c-10.51,15.26-11.46,37.56.9,52.02,14.34,16.78,45.3,24.45,70.44,3.05,21.49-18.3,34.95-56.47,6.11-110.77-9.39-17.68-59.41-13.26-77.45,55.7Z"/>
          <g>
            <path class="cls-9" d="m143.34,377.87c25.53-28.04,25.36-35.66,56.42-48,31.05-12.34,64.21-27.61,68.63-25.18,4.42,2.43-3.66,11.45-6.01,13.15-2.35,1.71-34.06,14-34.06,14,0,0,33.81-11.63,36.86-7.91,3.04,3.73-6.31,13.92-6.31,13.92l-39.56,16.25s42.49-14.02,44.23-10.2c1.75,3.81-8.87,13.56-8.87,13.56l-37.59,12.74s32.54-8.25,33.54-3.65c1.98,9.08-42.05,22.99-42.05,22.99,0,0-13.57,22.61-20.23,27.99-16.12,13.05-29.28,8.46-29.28,8.46,0,0-36.86,135.13-77.59,170.07-44.83,38.44-75.08,5.17-66.22-31.33,8.86-36.49,102.55-158.84,128.08-186.88Z"/>
            <path class="cls-1" d="m204.5,340.75c-.67.48-1.61.32-2.09-.35-.48-.67-.32-1.61.35-2.09.91-.65,5.17-1.88,10.94-3.56,6.85-1.98,15.88-4.6,23.49-7.34,13.84-4.98,21.08-8.22,21.1-8.23.76-.34,1.65,0,1.99.75.34.75,0,1.64-.75,1.98-.02,0-7.3,3.26-21.33,8.32-7.71,2.77-16.78,5.41-23.66,7.4-5.49,1.59-9.54,2.77-10.04,3.12Z"/>
            <path class="cls-1" d="m208.23,374.25c-.8.2-1.62-.28-1.82-1.08-.2-.8.28-1.62,1.08-1.82l1.35-.35h0c6.71-1.72,22.92-5.87,30.87-10.28.72-.4,1.64-.14,2.04.58.4.72.14,1.64-.58,2.04-8.31,4.62-24.77,8.83-31.58,10.57h0s-1.35.34-1.35.34Z"/>
            <path class="cls-1" d="m206.91,358.18c-.82.14-1.59-.41-1.73-1.23-.14-.82.41-1.59,1.23-1.73,1.25-.22,5.17-1.41,10.24-3.04,6.04-1.96,13.67-4.53,20.37-6.87.78-.27,1.64.14,1.91.92.27.78-.14,1.64-.92,1.91-6.74,2.35-14.39,4.93-20.44,6.89-5.2,1.68-9.27,2.91-10.65,3.15Z"/>
            <path class="cls-1" d="m200.31,331.27c-.77.3-1.64-.07-1.95-.84-.3-.77.07-1.64.84-1.94,7.95-3.16,16.36-6.65,24.35-9.96,22.49-9.33,41.67-17.28,45.55-15.14.12.07.25.15.39.24,1.32.91,1.79,2.22,1.68,3.74-.09,1.22-.6,2.56-1.33,3.89-.34.61-.73,1.24-1.16,1.86-2.54,3.69-7.13,6.82-12.46,9.51,5-.86,8.98-1.01,10.11.37.5.61.87,1.23,1.13,1.86.84,2.04.51,4.06-.56,6-.96,1.73-2.54,3.38-4.39,4.89-4.72,3.85-11.37,6.9-13.81,7.91l-1.55.6c8.95-1.97,16.8-3.02,17.74-.96.1.23.19.44.26.64,1.22,3.59-.93,6.95-4.39,9.85-3.12,2.61-7.36,4.88-10.94,6.51-2.59,1.18-4.81,2.03-6.01,2.43l-5.39,1.83c6.99-.85,13.1-.84,13.65,1.69,2.12,9.76-37.39,22.9-42.52,24.56-2,3.29-13.98,22.81-20.28,27.91-16.77,13.58-30.66,8.73-30.7,8.72-.78-.26-1.21-1.11-.95-1.9.26-.78,1.11-1.21,1.9-.95.04.01,12.38,4.32,27.86-8.2,6.44-5.21,19.85-27.54,19.89-27.61h0c.18-.3.47-.54.83-.65.12-.04,42.72-13.51,41.03-21.25-.67-3.07-31.62,4.77-31.71,4.79-.75.19-1.53-.23-1.79-.97-.26-.78.16-1.64.94-1.9l26.27-8.9c1.15-.39,3.28-1.2,5.72-2.32,3.37-1.54,7.36-3.67,10.25-6.09,2.55-2.14,4.2-4.45,3.47-6.59-.05-.13-.09-.25-.14-.36-1.16-2.53-40.29,9.56-42.34,10.19-.77.29-1.64-.1-1.93-.87-.3-.78.09-1.64.87-1.94l28.84-11.05c2.35-.96,8.62-3.85,13.02-7.44,1.58-1.29,2.91-2.66,3.66-4.03.64-1.16.86-2.31.41-3.4-.15-.37-.37-.74-.68-1.11-2.37-2.91-35.11,8.35-35.2,8.38h0c-.76.26-1.59-.13-1.88-.88-.3-.77.09-1.64.86-1.94l.12-.05c2.08-.8,4.53-1.66,7.2-2.59,11.12-3.88,26.07-9.09,31.11-16.41.36-.52.7-1.06.99-1.6.54-.98.91-1.92.97-2.67.03-.46-.07-.83-.38-1.04l-.13-.08c-2.62-1.44-21.19,6.26-42.95,15.29-7.8,3.24-16.02,6.64-24.4,9.98Z"/>
          </g>
          <path class="cls-1" d="m14.32,591.81c-.27-.78.15-1.64.93-1.91.78-.27,1.64.15,1.91.93,3,8.74,8.32,14.11,14.47,17.11,7.98,3.89,17.4,3.87,25.07,2.06,10.54-2.48,20.65-9.41,29.12-17.73,10.88-10.7,19-23.64,21.84-32.44.25-.79,1.1-1.22,1.89-.97.79.25,1.22,1.1.97,1.89-2.97,9.19-11.37,22.63-22.6,33.66-8.82,8.67-19.41,15.9-30.54,18.51-8.24,1.94-18.4,1.94-27.07-2.28-6.82-3.33-12.7-9.24-16-18.83Z"/>
          <g>
            <path class="cls-1" d="m234.65,326.75c.09.43-.18.86-.61.95-.43.1-.86-.18-.95-.61-.2-.89-.44-2.69-.53-4.35-.07-1.27-.05-2.48.15-3.22.11-.43.55-.68.98-.57.43.11.68.55.57.98-.15.56-.16,1.6-.1,2.72.09,1.58.31,3.26.5,4.09Z"/>
            <path class="cls-1" d="m232.13,342.66c.09.43-.18.86-.61.95-.43.09-.86-.18-.95-.61-.2-.9-.44-2.7-.53-4.35-.07-1.27-.05-2.48.15-3.22.11-.43.55-.68.98-.57.43.11.68.55.57.98-.15.56-.16,1.6-.1,2.72.09,1.58.31,3.27.5,4.09Z"/>
            <path class="cls-1" d="m231.46,360.17c.09.43-.18.86-.61.95-.43.1-.86-.18-.95-.61-.2-.9-.45-2.69-.53-4.35-.07-1.27-.04-2.48.15-3.22.11-.43.55-.68.98-.57.43.11.68.55.57.98-.15.56-.16,1.6-.1,2.72.09,1.58.31,3.26.5,4.09Z"/>
            <path class="cls-1" d="m230.4,375.82c.09.43-.18.86-.61.95s-.86-.18-.95-.61c-.2-.9-.44-2.69-.53-4.35-.07-1.27-.05-2.48.15-3.22.11-.43.55-.68.98-.57s.68.55.57.98c-.15.56-.16,1.6-.1,2.72.09,1.58.31,3.26.5,4.09Z"/>
            <path class="cls-1" d="m204.55,338.62c.13.42-.11.87-.54.99-.42.13-.87-.11-1-.54-.26-.87-.64-2.64-.85-4.3-.16-1.26-.23-2.48-.08-3.22.08-.43.5-.72.94-.63.43.08.72.5.64.94-.11.57-.05,1.61.1,2.72.2,1.56.55,3.23.79,4.05Z"/>
            <path class="cls-1" d="m205.44,352.65c.13.42-.12.87-.54.99-.42.13-.87-.11-.99-.54-.26-.87-.63-2.64-.85-4.3-.16-1.26-.22-2.48-.08-3.22.08-.44.5-.72.94-.64.43.08.72.5.63.94-.11.57-.05,1.61.1,2.72.2,1.56.55,3.23.79,4.04Z"/>
            <path class="cls-1" d="m205.87,371.24c.13.42-.11.87-.54,1-.42.13-.87-.11-1-.54-.26-.87-.63-2.64-.85-4.3-.16-1.26-.23-2.47-.08-3.22.08-.43.5-.72.94-.63.43.08.72.5.63.94-.11.57-.04,1.61.1,2.72.2,1.56.55,3.23.79,4.04Z"/>
            <path class="cls-1" d="m207.68,385.2c.13.42-.11.87-.54,1-.42.13-.87-.11-.99-.54-.26-.87-.64-2.65-.85-4.3-.16-1.26-.23-2.48-.08-3.22.08-.44.5-.72.94-.64.43.08.72.5.64.94-.11.57-.05,1.61.1,2.72.2,1.56.55,3.23.79,4.04Z"/>
          </g>
        </g>
      </g>
      <g>
        <g>
          <path class="cls-1" d="m165.56,199.82c1.52,10.36,4.83,44.18.35,50.55-1.29,3.75-26.02-32.85-27.75-43.44-.84-7.42,14.63-10.24,21.21-11.25,3.17-.48,5.51.35,6.19,4.15Z"/>
          <path class="cls-1" d="m126.31,235.86c4.64,3.95,15.79,17,21.8,27.28,8.23,14.08,4.71,14.16-7.41,9.52-6.76-2.58-15.47-6.32-22.22-9.58-12.72-6.14-24.13-11.11-11.05-23.92,7.54-8.11,8.64-11.13,18.88-3.31Z"/>
          <path class="cls-1" d="m104.82,276.15c7.39.53,38.63,6.58,39.32,12.66-.62,6.27-32.08,10.3-39.15,10.77-5.9-.35-4.3-6.81-4.29-10.91-.07-3.95-1.75-11.94,4.11-12.52Z"/>
          <path class="cls-1" d="m113.04,318.78c4.17-2.81,16.99-8.8,26.5-11.31,13.01-3.44,12.29-.62,5.94,7.99-3.55,4.81-8.43,10.9-12.51,15.55-7.69,8.76-14.16,16.73-21.45,3.51-4.78-7.78-6.95-9.33,1.53-15.74Z"/>
          <path class="cls-1" d="m214.92,196.81c-2.67,6.91-17.62,35-23.64,33.88-5.81-2.44-.44-33.69,1.18-40.58,2.07-5.53,7.77-2.11,11.69-.9,3.8,1.09,11.93,1.83,10.76,7.6Z"/>
        </g>
        <path class="cls-1" d="m107.68,366.45c2.34,0,4.24-1.91,4.24-4.24s-1.91-4.24-4.24-4.24-4.24,1.91-4.24,4.24,1.91,4.24,4.24,4.24Z"/>
        <path class="cls-1" d="m171.34,268.85c2.63,0,4.77-2.15,4.77-4.77s-2.15-4.77-4.77-4.77-4.77,2.15-4.77,4.77,2.14,4.77,4.77,4.77Z"/>
        <path class="cls-1" d="m238.7,208.91c4.38,0,7.96-3.57,7.96-7.96s-3.58-7.96-7.96-7.96-7.96,3.57-7.96,7.96,3.57,7.96,7.96,7.96Z"/>
        <path class="cls-1" d="m88.59,269.38c2.34,0,4.24-1.91,4.24-4.24s-1.91-4.24-4.24-4.24-4.24,1.91-4.24,4.24,1.9,4.24,4.24,4.24Z"/>
      </g>
      <path class="cls-3" d="m96.36,407.76C50.74,463.36,30.91,502.56,0,565.9c12.37-58.05,50.46-119.71,86.11-166.5l10.26,8.36Z"/>
      <g>
        <path class="cls-3" d="m404.94,451.88c4.7,17.97,24.01-8.05,6.8-8-4.55.01-7.09,3.61-6.8,8Z"/>
        <path class="cls-3" d="m450.95,440.72c-6.34,24.24-34.28-7.96-11.58-11.59,7.13-1.14,12.05,4.44,11.58,11.59Z"/>
        <path class="cls-3" d="m449.46,495.85c4.7,18.04,24.02-8.03,6.8-8.02-4.57,0-7.09,3.63-6.8,8.02Z"/>
        <path class="cls-3" d="m54.25,371.75c-6.34,24.24-34.27-7.96-11.58-11.59,7.13-1.14,12.05,4.44,11.58,11.59Z"/>
        <path class="cls-3" d="m382.3,371.23c4.7,18.04,24.02-8.03,6.8-8.02-4.57,0-7.09,3.63-6.8,8.02Z"/>
      </g>
      <g>
        <path class="cls-4" d="m416.93,260.37c12.69,29.18,16.57,53.43,15.4,73.32-3.29,55.75-46.29,77.29-46.29,77.29l85.28-19.82s101.56,13.87,134.76-83.23c29.94-87.57,16.61-212.7-14.5-257.5-79.33-114.26-275.64-22.33-174.65,209.94Z"/>
        <path class="cls-13" d="m386.04,413.57c-1.07,0-2.06-.67-2.44-1.71-.45-1.23.1-2.61,1.27-3.2.41-.21,41.7-21.6,44.86-75.12.09-1.43,1.31-2.48,2.74-2.44,1.43.09,2.52,1.31,2.44,2.74-2.24,37.94-22.72,60.61-36.1,71.51l71.93-16.71c.31-.07.62-.08.93-.05.25.04,25.34,3.29,54.03-5.17,38.25-11.29,64.46-36.97,77.92-76.33,29.79-87.14,16.61-210.86-14.17-255.19-.82-1.18-.52-2.79.65-3.61,1.18-.83,2.79-.52,3.61.65,31.46,45.3,45.08,171.3,14.82,259.82-32.29,94.47-129.22,85.88-137.06,85.02l-84.85,19.71c-.19.05-.39.07-.58.07Z"/>
        <path class="cls-7" d="m542.98,342.28c31.88-18.02,46.59-84.98,58.59-117.79,7.22,41.69-11.47,112.92-48.37,138.17-5.63,2.82-12.48.55-15.3-5.08-2.82-5.63-.55-12.48,5.08-15.3Z"/>
      </g>
      <text class="cls-12" transform="translate(444.88 171.51)"><tspan x="0" y="0">?</tspan><tspan x="34.81" y="166.52">!</tspan></text>
    </g>
  </g>
</svg>